<?xml version="1.0" standalone="no"?>
<!DOCTYPE svg PUBLIC "-//W3C//DTD SVG 20010904//EN"
 "http://www.w3.org/TR/2001/REC-SVG-20010904/DTD/svg10.dtd">
<svg version="1.0" xmlns="http://www.w3.org/2000/svg"
 width="464.000000pt" height="464.000000pt" viewBox="0 0 464.000000 464.000000"
 preserveAspectRatio="xMidYMid meet">
<metadata>
Created by potrace 1.14, written by Peter Selinger 2001-2017
</metadata>
<g transform="translate(0.000000,464.000000) scale(0.100000,-0.100000)"
fill="#000000" stroke="none">
<path d="M2149 4636 c-2 -2 -35 -6 -74 -10 -870 -79 -1663 -710 -1948 -1551
-26 -77 -49 -149 -52 -160 -2 -11 -13 -63 -24 -116 -38 -178 -48 -293 -45
-509 2 -113 5 -221 8 -240 3 -19 10 -66 16 -105 15 -96 63 -284 98 -386 132
-375 357 -710 658 -979 90 -81 294 -230 314 -230 5 0 10 -3 10 -7 0 -5 10 -13
23 -19 12 -6 74 -38 137 -70 122 -63 143 -72 248 -111 151 -56 299 -93 492
-124 91 -15 449 -20 545 -8 115 14 205 30 290 50 44 11 89 21 100 23 26 6 174
57 245 85 388 154 763 449 1011 794 104 146 213 341 269 482 28 71 41 107 59
165 24 75 51 174 57 210 2 14 7 36 10 50 8 35 14 70 29 180 12 93 13 456 1
530 -3 19 -8 55 -11 80 -57 449 -299 937 -632 1275 -193 195 -321 292 -555
422 -193 107 -485 213 -653 238 -16 3 -40 7 -52 9 -11 3 -43 8 -70 12 -26 3
-57 9 -68 11 -23 5 -431 14 -436 9z m1401 -1560 c175 -7 190 -8 315 -32 145
-28 154 -32 154 -73 0 -20 11 -81 25 -136 13 -55 23 -102 20 -104 -2 -2 -9 1
-16 6 -17 13 -156 70 -188 77 -248 55 -303 63 -465 60 -137 -2 -165 -5 -255
-33 -93 -29 -167 -81 -237 -165 -18 -21 -58 -113 -71 -161 -30 -110 -34 -307
-7 -420 25 -108 59 -173 125 -237 111 -108 250 -150 495 -152 172 -1 245 6
332 28 73 19 172 60 226 93 20 13 37 20 38 16 0 -5 2 -28 4 -53 1 -25 8 -72
14 -105 11 -57 10 -61 -11 -77 -22 -17 -181 -71 -243 -83 -174 -33 -479 -39
-665 -12 -146 21 -318 93 -407 170 -41 36 -114 138 -140 197 -49 108 -73 242
-74 405 -2 259 85 480 241 610 90 76 240 144 352 160 23 4 45 8 49 10 3 2 48
7 100 11 52 3 96 7 97 9 2 2 9 2 15 0 7 -2 86 -6 177 -9z m-1900 -30 c19 -4
62 -11 94 -17 220 -39 392 -162 473 -339 46 -102 71 -253 68 -419 -4 -178 -23
-277 -75 -388 -34 -73 -36 -77 -115 -157 -89 -90 -236 -159 -410 -191 -56 -11
-1053 -17 -1038 -7 40 26 41 50 39 767 -1 636 -2 693 -18 724 -10 19 -18 35
-18 36 0 5 971 -4 1000 -9z m1910 -410 c134 -17 224 -96 254 -221 30 -122 1
-291 -61 -361 -68 -76 -147 -103 -303 -103 -167 0 -261 36 -316 119 -84 127
-83 345 2 457 72 95 224 134 424 109z"/>
<path d="M1004 2842 c-13 -2 -24 -12 -26 -25 -2 -12 -4 -257 -4 -544 1 -385 4
-525 13 -534 12 -12 483 -16 548 -5 17 3 50 8 74 11 59 9 156 45 208 78 81 52
152 167 171 281 9 53 9 340 0 386 -22 108 -64 191 -122 243 -49 43 -171 87
-286 103 -48 7 -540 12 -576 6z"/>
<path d="M3355 2505 c-49 -17 -90 -62 -104 -111 -15 -55 -8 -182 14 -227 33
-69 103 -99 215 -91 120 8 169 65 174 199 3 98 -9 149 -47 189 -51 54 -163 72
-252 41z"/>
</g>
</svg>
